<svg width="256" height="288" viewBox="0 0 256 288" fill="none" xmlns="http://www.w3.org/2000/svg">
<g clip-path="url(#clip0_51_5858)">
<mask id="path-1-outside-1_51_5858" maskUnits="userSpaceOnUse" x="0" y="0" width="256" height="288" fill="black">
<rect fill="white" width="256" height="288"></rect>
<path d="M8 40C8 22.3269 22.3269 8 40 8H216C233.673 8 248 22.3269 248 40V288H8V40Z"></path>
</mask>
<path d="M8 40C8 22.3269 22.3269 8 40 8H216C233.673 8 248 22.3269 248 40V288H8V40Z" fill="white"></path>
<g clip-path="url(#clip1_51_5858)">
<path d="M87.1562 145.837C87.1562 142.044 87.1562 140.147 87.8944 138.698C88.5437 137.424 89.5798 136.388 90.8541 135.738C92.3028 135 94.1993 135 97.9922 135H100.318C104.111 135 106.008 135 107.456 135.738C108.731 136.388 109.767 137.424 110.416 138.698C111.154 140.147 111.154 142.044 111.154 145.837V148.163C111.154 151.956 111.154 153.853 110.416 155.302C109.767 156.576 108.731 157.612 107.456 158.262C106.008 159 104.111 159 100.318 159H97.9922C94.1993 159 92.3028 159 90.8541 158.262C89.5798 157.612 88.5437 156.576 87.8944 155.302C87.1562 153.853 87.1562 151.956 87.1562 148.163V145.837Z" fill="#7E06D3"></path>
<mask id="mask0_51_5858" style="mask-type:alpha" maskUnits="userSpaceOnUse" x="87" y="135" width="25" height="24">
<path d="M87.1533 145.837C87.1533 142.044 87.1533 140.147 87.8915 138.698C88.5408 137.424 89.5768 136.388 90.8511 135.738C92.2999 135 94.1963 135 97.9893 135H100.315C104.108 135 106.005 135 107.454 135.738C108.728 136.388 109.764 137.424 110.413 138.698C111.151 140.147 111.151 142.044 111.151 145.837V148.163C111.151 151.956 111.151 153.853 110.413 155.302C109.764 156.576 108.728 157.612 107.454 158.262C106.005 159 104.108 159 100.315 159H97.9893C94.1963 159 92.2999 159 90.8511 158.262C89.5768 157.612 88.5408 156.576 87.8915 155.302C87.1533 153.853 87.1533 151.956 87.1533 148.163V145.837Z" fill="#EDF0FF"></path>
</mask>
<g mask="url(#mask0_51_5858)">
<path fill-rule="evenodd" clip-rule="evenodd" d="M96.5097 137.363V135L96.642 135V137.363H101.663V135L101.795 135V137.363H106.742V135L106.874 135V137.363H111.151V137.496H106.874V142.443H111.151V142.575H106.874V147.596H111.151V147.729H106.874V152.676H111.151V152.809H106.874V157.83H111.151V157.962H106.874V159H106.742V157.962H101.795V159H101.663V157.962H96.642V159H96.5097V157.962H87.1533V157.83H96.5097V152.809H91.5627V152.89H91.4303V152.809H87.1533V152.676H91.4303V147.729H87.1533V147.596H91.4303V142.575H87.1533V142.443H91.4303V137.496H87.1533V137.363H91.4303V135L91.5627 135V137.363H96.5097ZM106.742 157.83V152.809L101.795 152.809V157.83H106.742ZM106.742 152.676V147.729L101.795 147.729V152.676H106.742ZM106.742 147.596V142.575H101.795V147.596H106.742ZM106.742 142.443V137.496H101.795V142.443H106.742ZM96.642 137.496H101.663V142.443H96.642V137.496ZM96.642 142.575H101.663V147.596H96.642V142.575ZM96.642 147.729H101.663V152.676H96.642V147.729ZM96.642 152.809H101.663V157.83H96.642V152.809ZM96.5097 137.496H91.5627V142.443H96.5097V137.496ZM96.5097 142.575L91.5627 142.575V147.596H96.5097V142.575ZM96.5097 147.729H91.5627V152.676H96.5097V147.729Z" fill="url(#paint0_linear_51_5858)" fill-opacity="0.4"></path>
</g>
<path d="M95.7739 145.278H97.8606C97.9081 145.278 97.9318 145.278 97.9542 145.284C97.9739 145.289 97.9929 145.296 98.0102 145.307C98.0298 145.319 98.0466 145.336 98.0801 145.369L100.114 147.403C100.191 147.48 100.229 147.518 100.243 147.563C100.256 147.602 100.256 147.644 100.243 147.683C100.229 147.727 100.19 147.765 100.114 147.842L94.5642 153.392C94.5307 153.426 94.5138 153.442 94.4942 153.454C94.4769 153.465 94.458 153.473 94.4382 153.478C94.4158 153.483 94.3921 153.483 94.3446 153.483H92.258C92.2105 153.483 92.1867 153.483 92.1644 153.478C92.1445 153.473 92.1256 153.465 92.1082 153.454C92.0886 153.442 92.0719 153.426 92.0383 153.392L90.008 151.358C89.9313 151.282 89.893 151.243 89.8786 151.199C89.866 151.16 89.866 151.118 89.8786 151.079C89.893 151.035 89.9314 150.996 90.0081 150.92L95.5543 145.369C95.5879 145.336 95.6046 145.319 95.6242 145.307C95.6416 145.296 95.6605 145.289 95.6803 145.284C95.7026 145.278 95.7264 145.278 95.7739 145.278Z" fill="white" stroke="white" stroke-width="0.611205"></path>
<path d="M94.1663 153.176L92.437 151.446C92.3294 151.339 92.2756 151.285 92.2555 151.223C92.2378 151.168 92.2378 151.11 92.2555 151.055C92.2756 150.993 92.3294 150.939 92.437 150.832L97.6823 145.586H97.6824C97.7899 145.478 97.8436 145.425 97.9057 145.404C97.9603 145.387 98.019 145.387 98.0735 145.404C98.1356 145.425 98.1893 145.478 98.297 145.586L100.026 147.315C100.134 147.423 100.188 147.477 100.208 147.539C100.226 147.593 100.226 147.652 100.208 147.707C100.188 147.769 100.134 147.822 100.026 147.93L94.781 153.176C94.6734 153.283 94.6196 153.337 94.5576 153.357C94.503 153.375 94.4443 153.375 94.3897 153.357C94.3277 153.337 94.2739 153.283 94.1663 153.176Z" fill="#7E06D3" stroke="white" stroke-width="0.611205"></path>
<path d="M99.0332 146.323L97.1271 144.414C97.0197 144.306 96.966 144.252 96.9459 144.19C96.9282 144.136 96.9282 144.077 96.9459 144.023C96.9661 143.961 97.0198 143.907 97.1274 143.799L100.213 140.714C100.26 140.667 100.283 140.643 100.31 140.626C100.335 140.612 100.361 140.601 100.389 140.594C100.42 140.586 100.453 140.586 100.52 140.586H102.504C102.57 140.586 102.603 140.586 102.635 140.594C102.663 140.601 102.689 140.612 102.713 140.626C102.741 140.643 102.764 140.667 102.811 140.714L108.237 146.14C108.344 146.247 108.398 146.301 108.418 146.363C108.436 146.418 108.436 146.476 108.418 146.531C108.398 146.593 108.344 146.647 108.237 146.754L106.507 148.484C106.4 148.591 106.346 148.645 106.326 148.707C106.308 148.762 106.308 148.82 106.326 148.875C106.346 148.937 106.4 148.991 106.507 149.098L108.237 150.828C108.344 150.935 108.398 150.989 108.418 151.051C108.436 151.106 108.436 151.165 108.418 151.219C108.398 151.281 108.344 151.335 108.237 151.443L106.327 153.352C106.28 153.399 106.257 153.423 106.229 153.439C106.205 153.454 106.178 153.465 106.151 153.472C106.119 153.479 106.086 153.479 106.02 153.479H104.036C103.969 153.479 103.936 153.479 103.905 153.472C103.877 153.465 103.851 153.454 103.826 153.439C103.799 153.423 103.776 153.399 103.729 153.352L99.4686 149.099C99.3608 148.991 99.3069 148.937 99.2867 148.875C99.2689 148.82 99.2689 148.762 99.2867 148.707C99.3069 148.645 99.3608 148.591 99.4686 148.484L101.027 146.928C101.177 146.778 101.251 146.703 101.257 146.639C101.261 146.583 101.238 146.529 101.196 146.492C101.147 146.451 101.041 146.451 100.829 146.451H99.3408C99.2743 146.451 99.241 146.451 99.2097 146.443C99.182 146.436 99.1555 146.425 99.1312 146.41C99.1037 146.394 99.0802 146.37 99.0332 146.323Z" fill="white" stroke="white" stroke-width="0.611205" stroke-linejoin="round"></path>
<path d="M99.4685 143.799C99.3608 143.907 99.307 143.96 99.2868 144.022C99.269 144.077 99.269 144.136 99.2867 144.19C99.3069 144.252 99.3607 144.306 99.4683 144.414L101.198 146.144C101.305 146.251 101.359 146.305 101.421 146.325C101.476 146.343 101.534 146.343 101.589 146.325C101.651 146.305 101.705 146.251 101.812 146.144L102.377 145.581C102.484 145.474 102.538 145.42 102.6 145.4C102.655 145.383 102.713 145.383 102.768 145.4C102.83 145.421 102.884 145.474 102.991 145.582L103.549 146.14C103.656 146.247 103.71 146.301 103.73 146.363C103.748 146.417 103.748 146.476 103.73 146.531C103.71 146.593 103.656 146.647 103.549 146.754L101.819 148.484C101.712 148.591 101.658 148.645 101.638 148.707C101.62 148.762 101.62 148.82 101.638 148.875C101.658 148.937 101.712 148.991 101.819 149.098L105.893 153.172C106 153.28 106.054 153.333 106.116 153.354C106.171 153.371 106.23 153.371 106.284 153.354C106.346 153.333 106.4 153.28 106.507 153.172L108.237 151.443C108.344 151.335 108.398 151.281 108.418 151.219C108.436 151.165 108.436 151.106 108.418 151.051C108.398 150.989 108.344 150.936 108.237 150.828L106.507 149.098C106.4 148.991 106.346 148.937 106.326 148.875C106.308 148.82 106.308 148.762 106.326 148.707C106.346 148.645 106.4 148.591 106.507 148.484L108.237 146.754C108.344 146.647 108.398 146.593 108.418 146.531C108.436 146.476 108.436 146.417 108.418 146.363C108.398 146.301 108.344 146.247 108.237 146.14L102.991 140.894C102.884 140.786 102.83 140.732 102.768 140.712C102.713 140.694 102.655 140.694 102.6 140.712C102.538 140.732 102.484 140.786 102.377 140.893L99.4685 143.799Z" fill="#7E06D3" stroke="white" stroke-width="0.611205" stroke-linejoin="round"></path>
<path d="M117.154 150.366V141H120.859C121.568 141 122.174 141.127 122.675 141.38C123.179 141.63 123.563 141.985 123.826 142.445C124.092 142.902 124.225 143.441 124.225 144.059C124.225 144.681 124.09 145.216 123.821 145.665C123.552 146.11 123.162 146.451 122.652 146.689C122.145 146.927 121.53 147.046 120.809 147.046H118.328V145.454H120.488C120.867 145.454 121.182 145.402 121.432 145.299C121.683 145.195 121.869 145.04 121.992 144.832C122.117 144.625 122.18 144.367 122.18 144.059C122.18 143.748 122.117 143.486 121.992 143.273C121.869 143.059 121.681 142.898 121.428 142.788C121.177 142.675 120.861 142.619 120.479 142.619H119.14V150.366H117.154ZM122.226 146.104L124.559 150.366H122.368L120.084 146.104H122.226ZM129.72 147.375V143.341H131.673V150.366H129.798V149.09H129.725C129.566 149.502 129.301 149.832 128.932 150.082C128.565 150.332 128.117 150.457 127.588 150.457C127.117 150.457 126.703 150.351 126.345 150.137C125.988 149.924 125.708 149.62 125.506 149.227C125.308 148.834 125.207 148.363 125.204 147.814V143.341H127.157V147.466C127.16 147.881 127.272 148.209 127.492 148.45C127.712 148.691 128.007 148.811 128.377 148.811C128.612 148.811 128.832 148.758 129.037 148.651C129.242 148.541 129.407 148.38 129.532 148.166C129.661 147.953 129.723 147.689 129.72 147.375ZM132.849 153V143.341H134.774V144.521H134.861C134.947 144.332 135.071 144.14 135.233 143.945C135.398 143.747 135.612 143.582 135.875 143.451C136.141 143.317 136.471 143.25 136.865 143.25C137.379 143.25 137.853 143.384 138.287 143.652C138.721 143.918 139.068 144.319 139.327 144.855C139.587 145.389 139.717 146.058 139.717 146.863C139.717 147.646 139.59 148.308 139.337 148.848C139.086 149.384 138.744 149.791 138.31 150.069C137.879 150.343 137.396 150.48 136.861 150.48C136.482 150.48 136.159 150.418 135.893 150.293C135.63 150.168 135.415 150.011 135.247 149.822C135.078 149.63 134.95 149.436 134.861 149.241H134.802V153H132.849ZM134.761 146.854C134.761 147.271 134.819 147.636 134.935 147.947C135.051 148.258 135.219 148.5 135.439 148.674C135.659 148.845 135.927 148.93 136.242 148.93C136.559 148.93 136.829 148.843 137.049 148.669C137.269 148.492 137.435 148.248 137.548 147.938C137.665 147.623 137.723 147.262 137.723 146.854C137.723 146.448 137.666 146.091 137.553 145.784C137.44 145.476 137.273 145.235 137.053 145.061C136.833 144.887 136.563 144.8 136.242 144.8C135.924 144.8 135.655 144.884 135.435 145.052C135.218 145.22 135.051 145.457 134.935 145.765C134.819 146.073 134.761 146.436 134.761 146.854ZM143.842 150.503C143.117 150.503 142.494 150.357 141.971 150.064C141.451 149.768 141.051 149.351 140.77 148.811C140.488 148.268 140.348 147.627 140.348 146.886C140.348 146.163 140.488 145.529 140.77 144.983C141.051 144.437 141.447 144.012 141.957 143.707C142.471 143.402 143.073 143.25 143.764 143.25C144.228 143.25 144.661 143.325 145.061 143.474C145.465 143.62 145.816 143.841 146.116 144.137C146.419 144.433 146.654 144.805 146.822 145.253C146.99 145.698 147.074 146.219 147.074 146.817V147.352H141.127V146.145H145.236C145.236 145.864 145.174 145.616 145.052 145.399C144.93 145.183 144.76 145.014 144.543 144.892C144.329 144.767 144.08 144.704 143.796 144.704C143.499 144.704 143.236 144.773 143.007 144.91C142.781 145.044 142.604 145.226 142.475 145.454C142.347 145.68 142.281 145.931 142.278 146.209V147.357C142.278 147.704 142.342 148.005 142.471 148.258C142.602 148.511 142.787 148.706 143.026 148.843C143.264 148.98 143.547 149.049 143.874 149.049C144.091 149.049 144.289 149.018 144.47 148.957C144.65 148.896 144.805 148.805 144.933 148.683C145.061 148.561 145.159 148.412 145.226 148.235L147.033 148.354C146.941 148.787 146.753 149.165 146.469 149.488C146.188 149.808 145.824 150.058 145.378 150.238C144.935 150.415 144.422 150.503 143.842 150.503ZM151.171 150.503C150.447 150.503 149.823 150.357 149.3 150.064C148.781 149.768 148.38 149.351 148.099 148.811C147.818 148.268 147.677 147.627 147.677 146.886C147.677 146.163 147.818 145.529 148.099 144.983C148.38 144.437 148.776 144.012 149.287 143.707C149.8 143.402 150.402 143.25 151.093 143.25C151.558 143.25 151.99 143.325 152.391 143.474C152.794 143.62 153.146 143.841 153.446 144.137C153.748 144.433 153.984 144.805 154.152 145.253C154.32 145.698 154.404 146.219 154.404 146.817V147.352H148.457V146.145H152.565C152.565 145.864 152.504 145.616 152.382 145.399C152.259 145.183 152.09 145.014 151.873 144.892C151.659 144.767 151.41 144.704 151.125 144.704C150.829 144.704 150.566 144.773 150.337 144.91C150.111 145.044 149.933 145.226 149.805 145.454C149.676 145.68 149.611 145.931 149.608 146.209V147.357C149.608 147.704 149.672 148.005 149.8 148.258C149.932 148.511 150.117 148.706 150.355 148.843C150.594 148.98 150.876 149.049 151.203 149.049C151.42 149.049 151.619 149.018 151.799 148.957C151.98 148.896 152.134 148.805 152.263 148.683C152.391 148.561 152.489 148.412 152.556 148.235L154.363 148.354C154.271 148.787 154.083 149.165 153.799 149.488C153.517 149.808 153.154 150.058 152.707 150.238C152.264 150.415 151.752 150.503 151.171 150.503ZM155.254 150.366V149.204L158.703 144.947V144.896H155.374V143.341H161.055V144.608L157.818 148.761V148.811H161.174V150.366H155.254ZM163.486 153C163.239 153 163.006 152.98 162.789 152.941C162.575 152.904 162.398 152.857 162.258 152.799L162.698 151.344C162.927 151.415 163.133 151.453 163.316 151.459C163.503 151.465 163.664 151.422 163.798 151.331C163.936 151.239 164.047 151.084 164.132 150.864L164.247 150.567L161.721 143.341H163.775L165.233 148.5H165.307L166.778 143.341H168.846L166.109 151.125C165.977 151.503 165.799 151.832 165.573 152.113C165.349 152.396 165.066 152.614 164.725 152.767C164.382 152.922 163.969 153 163.486 153Z" fill="#1E293B"></path>
</g>
<g filter="url(#filter0_i_51_5858)">
<rect x="95" y="40" width="64" height="12" rx="6" fill="#464545"></rect>
</g>
<path d="M38.912 184.432V196H37.344V184.432H38.912ZM42.8576 196H41.3536V188.176H42.7136L42.8736 189.376C43.3696 188.48 44.3616 187.952 45.4656 187.952C47.5296 187.952 48.4736 189.216 48.4736 191.216V196H46.9696V191.552C46.9696 189.968 46.2336 189.328 45.0816 189.328C43.6736 189.328 42.8576 190.336 42.8576 191.856V196ZM52.5925 196L49.4405 188.176H51.0405L52.7525 192.544C53.0245 193.28 53.2485 193.936 53.3765 194.416C53.5045 193.904 53.7605 193.232 54.0325 192.544L55.7765 188.176H57.3445L54.0805 196H52.5925ZM61.5578 196.192C59.2538 196.192 57.6698 194.528 57.6698 192.096C57.6698 189.648 59.2218 187.952 61.4938 187.952C63.7178 187.952 65.1737 189.488 65.1737 191.808V192.368L59.1258 192.384C59.2378 194.032 60.1018 194.944 61.5898 194.944C62.7578 194.944 63.5258 194.464 63.7818 193.568H65.1898C64.8058 195.248 63.4938 196.192 61.5578 196.192ZM61.4938 189.216C60.1818 189.216 59.3498 190 59.1578 191.376H63.6698C63.6698 190.08 62.8218 189.216 61.4938 189.216ZM66.2136 193.728H67.6536C67.6536 194.528 68.2616 195.008 69.2536 195.008C70.3096 195.008 70.9176 194.576 70.9176 193.856C70.9176 193.328 70.6616 193.008 69.8456 192.8L68.4696 192.48C67.0776 192.144 66.4216 191.456 66.4216 190.304C66.4216 188.864 67.6376 187.952 69.3656 187.952C71.0776 187.952 72.1976 188.912 72.2296 190.4H70.7896C70.7576 189.616 70.2296 189.12 69.3176 189.12C68.3736 189.12 67.8456 189.536 67.8456 190.256C67.8456 190.784 68.2296 191.136 68.9976 191.328L70.3736 191.664C71.7016 191.984 72.3576 192.592 72.3576 193.76C72.3576 195.248 71.0776 196.192 69.2216 196.192C67.3816 196.192 66.2136 195.216 66.2136 193.728ZM76.2335 196H74.7295V189.44H73.1935V188.176H74.7295V185.728H76.2335V188.176H77.7695V189.44H76.2335V196ZM86.8703 196.192C84.5663 196.192 82.9823 194.528 82.9823 192.096C82.9823 189.648 84.5343 187.952 86.8063 187.952C89.0303 187.952 90.4862 189.488 90.4862 191.808V192.368L84.4383 192.384C84.5503 194.032 85.4143 194.944 86.9023 194.944C88.0703 194.944 88.8383 194.464 89.0943 193.568H90.5023C90.1183 195.248 88.8063 196.192 86.8703 196.192ZM86.8063 189.216C85.4943 189.216 84.6623 190 84.4703 191.376H88.9823C88.9823 190.08 88.1343 189.216 86.8063 189.216ZM94.376 196.192C92.696 196.192 91.704 195.248 91.704 193.824C91.704 192.384 92.776 191.488 94.616 191.344L97.08 191.152V190.928C97.08 189.616 96.296 189.152 95.24 189.152C93.976 189.152 93.256 189.712 93.256 190.656H91.944C91.944 189.024 93.288 187.952 95.304 187.952C97.24 187.952 98.552 188.976 98.552 191.088V196H97.272L97.112 194.736C96.712 195.632 95.64 196.192 94.376 196.192ZM94.808 195.024C96.232 195.024 97.096 194.096 97.096 192.624V192.208L95.096 192.368C93.768 192.496 93.224 193.008 93.224 193.776C93.224 194.608 93.832 195.024 94.808 195.024ZM99.9949 193.728H101.435C101.435 194.528 102.043 195.008 103.035 195.008C104.091 195.008 104.699 194.576 104.699 193.856C104.699 193.328 104.443 193.008 103.627 192.8L102.251 192.48C100.859 192.144 100.203 191.456 100.203 190.304C100.203 188.864 101.419 187.952 103.147 187.952C104.859 187.952 105.979 188.912 106.011 190.4H104.571C104.539 189.616 104.011 189.12 103.099 189.12C102.155 189.12 101.627 189.536 101.627 190.256C101.627 190.784 102.011 191.136 102.779 191.328L104.155 191.664C105.483 191.984 106.139 192.592 106.139 193.76C106.139 195.248 104.859 196.192 103.003 196.192C101.163 196.192 99.9949 195.216 99.9949 193.728ZM106.899 199.504V198.272H107.907C108.627 198.272 109.203 198.16 109.571 197.168L109.843 196.416L106.691 188.176H108.275L110.547 194.48L112.867 188.176H114.419L110.723 197.76C110.195 199.104 109.411 199.664 108.211 199.664C107.715 199.664 107.299 199.6 106.899 199.504ZM121.674 196L119.114 188.176H120.666L121.962 192.24C122.138 192.816 122.298 193.408 122.442 194.096C122.57 193.408 122.778 192.752 122.954 192.24L124.266 188.176H125.802L127.098 192.24C127.226 192.624 127.482 193.536 127.61 194.096C127.738 193.472 127.882 192.928 128.106 192.24L129.418 188.176H130.986L128.314 196H126.89L125.53 191.808C125.274 191.024 125.114 190.416 125.034 189.984C124.954 190.368 124.81 190.88 124.522 191.824L123.162 196H121.674ZM133.012 186.32C132.468 186.32 132.02 185.872 132.02 185.328C132.02 184.768 132.468 184.336 133.012 184.336C133.556 184.336 134.004 184.768 134.004 185.328C134.004 185.872 133.556 186.32 133.012 186.32ZM132.276 196V188.176H133.78V196H132.276ZM138.171 196H136.667V189.44H135.131V188.176H136.667V185.728H138.171V188.176H139.707V189.44H138.171V196ZM142.561 195.984H141.057V184.224H142.561V189.376C143.057 188.528 144.001 187.952 145.217 187.952C147.217 187.952 148.177 189.216 148.177 191.216V196H146.673V191.552C146.673 189.968 145.921 189.328 144.801 189.328C143.345 189.328 142.561 190.384 142.561 191.728V195.984ZM156.459 196H154.891V184.432H159.259C161.739 184.432 163.211 185.744 163.211 187.904C163.211 189.504 162.411 190.656 160.971 191.12L163.323 196H161.579L159.419 191.424H156.459V196ZM156.459 185.84V190.032H159.275C160.731 190.032 161.563 189.248 161.563 187.92C161.563 186.576 160.699 185.84 159.259 185.84H156.459ZM170.277 188.176H171.765V196H170.421L170.261 194.816C169.813 195.632 168.773 196.192 167.621 196.192C165.797 196.192 164.773 194.96 164.773 193.04V188.176H166.277V192.544C166.277 194.224 166.997 194.864 168.149 194.864C169.525 194.864 170.277 193.984 170.277 192.304V188.176ZM173.947 199.504V188.176H175.307L175.419 189.584C175.947 188.512 177.003 187.952 178.251 187.952C180.491 187.952 181.883 189.632 181.883 192.032C181.883 194.416 180.571 196.208 178.251 196.208C177.003 196.208 175.963 195.68 175.451 194.72V199.504H173.947ZM175.467 192.096C175.467 193.696 176.395 194.848 177.931 194.848C179.467 194.848 180.379 193.696 180.379 192.096C180.379 190.48 179.467 189.328 177.931 189.328C176.395 189.328 175.467 190.464 175.467 192.096ZM186.917 196.192C184.613 196.192 183.029 194.528 183.029 192.096C183.029 189.648 184.581 187.952 186.853 187.952C189.077 187.952 190.533 189.488 190.533 191.808V192.368L184.485 192.384C184.597 194.032 185.461 194.944 186.949 194.944C188.117 194.944 188.885 194.464 189.141 193.568H190.549C190.165 195.248 188.853 196.192 186.917 196.192ZM186.853 189.216C185.541 189.216 184.709 190 184.517 191.376H189.029C189.029 190.08 188.181 189.216 186.853 189.216ZM195.589 196.192C193.285 196.192 191.701 194.528 191.701 192.096C191.701 189.648 193.253 187.952 195.525 187.952C197.749 187.952 199.205 189.488 199.205 191.808V192.368L193.157 192.384C193.269 194.032 194.133 194.944 195.621 194.944C196.789 194.944 197.557 194.464 197.813 193.568H199.221C198.837 195.248 197.525 196.192 195.589 196.192ZM195.525 189.216C194.213 189.216 193.381 190 193.189 191.376H197.701C197.701 190.08 196.853 189.216 195.525 189.216ZM206.345 196H200.249V194.784L204.473 189.44H200.249V188.176H206.345V189.408L202.089 194.736H206.345V196ZM207.289 199.504V198.272H208.297C209.017 198.272 209.593 198.16 209.961 197.168L210.233 196.416L207.081 188.176H208.665L210.937 194.48L213.257 188.176H214.809L211.113 197.76C210.585 199.104 209.801 199.664 208.601 199.664C208.105 199.664 207.689 199.6 207.289 199.504ZM217.85 192.528H216.682C216.522 191.328 216.41 189.2 216.41 187.12V184.432H218.138V187.12C218.138 189.232 218.01 191.344 217.85 192.528ZM217.274 196.224C216.634 196.224 216.122 195.712 216.122 195.088C216.122 194.464 216.634 193.952 217.274 193.952C217.882 193.952 218.41 194.464 218.41 195.088C218.41 195.712 217.882 196.224 217.274 196.224Z" fill="#828A99"></path>
</g>
<path d="M0 40C0 17.9086 17.9086 0 40 0H216C238.091 0 256 17.9086 256 40H240C240 26.7452 229.255 16 216 16H40C26.7452 16 16 26.7452 16 40H0ZM248 288H8H248ZM0 288V40C0 17.9086 17.9086 0 40 0V16C26.7452 16 16 26.7452 16 40V288H0ZM216 0C238.091 0 256 17.9086 256 40V288H240V40C240 26.7452 229.255 16 216 16V0Z" fill="black" mask="url(#path-1-outside-1_51_5858)"></path>
<defs>
<filter id="filter0_i_51_5858" x="95" y="40" width="64" height="14" filterUnits="userSpaceOnUse" color-interpolation-filters="sRGB">
<feFlood flood-opacity="0" result="BackgroundImageFix"></feFlood>
<feBlend mode="normal" in="SourceGraphic" in2="BackgroundImageFix" result="shape"></feBlend>
<feColorMatrix in="SourceAlpha" type="matrix" values="0 0 0 0 0 0 0 0 0 0 0 0 0 0 0 0 0 0 127 0" result="hardAlpha"></feColorMatrix>
<feMorphology radius="2" operator="erode" in="SourceAlpha" result="effect1_innerShadow_51_5858"></feMorphology>
<feOffset dy="2"></feOffset>
<feGaussianBlur stdDeviation="2.75"></feGaussianBlur>
<feComposite in2="hardAlpha" operator="arithmetic" k2="-1" k3="1"></feComposite>
<feColorMatrix type="matrix" values="0 0 0 0 0.0739183 0 0 0 0 0.0737392 0 0 0 0 0.0737392 0 0 0 1 0"></feColorMatrix>
<feBlend mode="normal" in2="shape" result="effect1_innerShadow_51_5858"></feBlend>
</filter>
<linearGradient id="paint0_linear_51_5858" x1="101.635" y1="133.504" x2="101.773" y2="159.573" gradientUnits="userSpaceOnUse">
<stop stop-color="#BECAFF" stop-opacity="0.53"></stop>
<stop offset="0.856525" stop-color="#244AED" stop-opacity="0"></stop>
</linearGradient>
<clipPath id="clip0_51_5858">
<path d="M8 40C8 22.3269 22.3269 8 40 8H216C233.673 8 248 22.3269 248 40V288H8V40Z" fill="white"></path>
</clipPath>
<clipPath id="clip1_51_5858">
<rect width="81.693" height="24" fill="white" transform="translate(87.1533 135)"></rect>
</clipPath>
</defs>
</svg>