<svg width="1600" height="900" viewBox="0 0 1600 900" fill="none" xmlns="http://www.w3.org/2000/svg">
<defs><clipPath id="coreClip"><rect width="1600" height="900"></rect></clipPath>
<filter id="coreGlow" x="-30%" y="-30%" width="160%" height="170%"><feDropShadow dx="0" dy="34" stdDeviation="40" flood-color="#062A6B" flood-opacity=".2"></feDropShadow></filter>
<filter id="softShadow" x="-20%" y="-20%" width="150%" height="160%"><feDropShadow dx="0" dy="22" stdDeviation="24" flood-color="#2A2417" flood-opacity=".16"></feDropShadow></filter></defs>
<g clip-path="url(#coreClip)">
<rect width="1600" height="900" fill="#DCE6FA"></rect>

<text x="1010" y="560" text-anchor="middle" font-family="Satoshi, Helvetica, Arial, sans-serif" font-size="360" font-weight="700" letter-spacing="-18" fill="#064AD3" opacity=".1">Aa</text>
<g data-float="1" style="transform-box:fill-box;transform-origin:center"><path d="M1112.5 178.0 L1112.5 234.0 L1064.0 262.0 L1015.5 234.0 L1015.5 178.0 L1064.0 150.0 Z" fill="none" stroke="#064AD3" stroke-width="6" stroke-opacity=".55"></path></g>
<g data-float="2" style="transform-box:fill-box;transform-origin:center"><path d="M846 700 a72 72 0 1 1 122 52" fill="none" stroke="#4C87F2" stroke-width="30" stroke-linecap="round"></path></g>
<g data-float="3" style="transform-box:fill-box;transform-origin:center"><path d="M1352 664 l86 148 h-172 Z" fill="#C3D6FA"></path></g>
<g filter="url(#coreGlow)"><g data-layer="0" style="transform-box:fill-box;transform-origin:center">
<path d="M300.2 544.0 L560.0 694.0 L560.0 770.0 L300.2 620.0 Z" fill="#062F80"></path>
<path d="M819.8 544.0 L560.0 694.0 L560.0 770.0 L819.8 620.0 Z" fill="#073A9C"></path>
<path d="M560.0 394.0 L819.8 544.0 L560.0 694.0 L300.2 544.0 Z" fill="#0A45B8"></path></g><g data-layer="1" style="transform-box:fill-box;transform-origin:center">
<path d="M300.2 456.0 L560.0 606.0 L560.0 682.0 L300.2 532.0 Z" fill="#064AD3"></path>
<path d="M819.8 456.0 L560.0 606.0 L560.0 682.0 L819.8 532.0 Z" fill="#0942A8"></path>
<path d="M560.0 306.0 L819.8 456.0 L560.0 606.0 L300.2 456.0 Z" fill="#0F52D2"></path></g><g data-layer="2" style="transform-box:fill-box;transform-origin:center">
<path d="M300.2 368.0 L560.0 518.0 L560.0 594.0 L300.2 444.0 Z" fill="#1A57CE"></path>
<path d="M819.8 368.0 L560.0 518.0 L560.0 594.0 L819.8 444.0 Z" fill="#2E6BE6"></path>
<path d="M560.0 218.0 L819.8 368.0 L560.0 518.0 L300.2 368.0 Z" fill="#4C87F2"></path></g></g>

</g>
</svg>